<svg xmlns="http://www.w3.org/2000/svg" viewBox="0 0 142.35 130.6"><defs><style>.cls-1{fill:#5c4831;}.cls-2{fill:#9d765a;}.cls-3{fill:#e198ac;}.cls-4{fill:#f7d0d3;}.cls-5{fill:#e098ac;}.cls-6{fill:#698a60;}.cls-7{fill:#39543f;}</style></defs><g id="Layer_2" data-name="Layer 2"><g id="Layer_1-2" data-name="Layer 1"><path class="cls-1" d="M125.47,49.7A36.18,36.18,0,0,0,128.56,35c0-19.34-15-35-33.46-35S61.64,15.67,61.64,35a36.1,36.1,0,0,0,3.47,15.51C39.68,57.63,32.74,72.69,32.74,72.69l-17.36-14c-2.89,47.73,32.79,76.18,72.81,71.36,39.21-8.2,54.32-37,54.16-59.3C142.2,50.21,127.78,49.66,125.47,49.7Z"/><path class="cls-2" d="M30.74,95.78c3.9,2.84,7.69,5.87,11.73,8.49,9.71,6.29,20.42,8.56,31.89,7.45,1.63-.16,3.26-.35,4.87-.67a6.37,6.37,0,0,0,1.74-1l-.17-.47a10.05,10.05,0,0,0-1.45-.16c-15.32.28-28.63-5-40.13-14.87A47.41,47.41,0,0,1,25.54,75l.1-.09c.59.52,1.19,1,1.77,1.57A37.41,37.41,0,0,0,43.58,85c6.87,1.88,13.88,1.93,21,1.34,8.17-.69,16.12-2.57,24.13-4.17,1-.19,2-.29,2.92-.42a7.86,7.86,0,0,1,.91.07A12,12,0,0,1,91.25,83a70.25,70.25,0,0,1-20,9.14,14.39,14.39,0,0,0-1.78.38c-.38.15-.93.56-.93.85a1.54,1.54,0,0,0,.72,1.18,44.9,44.9,0,0,0,5.37,1.65c9.27,2.08,18.39,1,27.42-1.48,9.19-2.5,17.66-6.41,24.9-12.7,2-1.74,3.85-3.68,5.89-5.65-.09.46-.14.84-.24,1.2a56.36,56.36,0,0,1-12.09,22.54c-6.44,7.42-13.81,13.69-23.11,17.32a62.36,62.36,0,0,1-25.22,4.4c-12.65-.47-23.87-4.66-32.78-13.84-3.24-3.34-5.71-7.42-8.52-11.17a3.24,3.24,0,0,1-.3-.79Z"/><path class="cls-3" d="M38.2,76.09c7-9.46,16.27-15.5,27.24-19.11,2.22-.72,3.61-.64,5.38,1.27A30.76,30.76,0,0,0,90.45,68c1.47.17,3,.67,4.41.46,6.7-1,13.23-2.63,19-6.37q3.8-2.45,7.54-4.94a8.37,8.37,0,0,1,7.1-1.32c3.29.9,4.86,3.54,4.12,7.06a22.72,22.72,0,0,1-5,9.51c-5.35,6.67-12.37,11-20.14,14.24a58.16,58.16,0,0,1-16.12,3.85,31.66,31.66,0,0,0,3.72-2.7A45.59,45.59,0,0,0,99.41,83,8.25,8.25,0,0,0,100.76,80c.66-2.32-.36-4.29-2.73-4.47a40.55,40.55,0,0,0-9.79.22c-5.54.93-11,2.52-16.49,3.58-9.13,1.76-18.28,2-27.31-.7-1.44-.43-2.83-1-4.22-1.56C39.57,76.85,39,76.48,38.2,76.09Z"/><path class="cls-4" d="M120.88,43.33c-3.39,11.52-13.65,19.89-25.77,19.89-14.89,0-27-12.63-27-28.21a28.94,28.94,0,0,1,4.59-15.74c.61,7,7.12,12.52,15.07,12.52a16.17,16.17,0,0,0,9.27-2.86c2.44,8.44,10.66,14.65,20.43,14.65A23.34,23.34,0,0,0,120.88,43.33Z"/><path class="cls-1" d="M83,41.53c-.24-1.37-2-.53-2.89-.7a5.22,5.22,0,0,1-4.14-2.22,1.13,1.13,0,0,0-1.4-.47c-2.18,1.26,1.72,4.48,3.18,4.72a7.24,7.24,0,0,0,4.71-.43A.9.9,0,0,0,83,41.53Z"/><path class="cls-1" d="M101.18,46.19c-.4-1.5-2.09-.39-3-.48a5.27,5.27,0,0,1-4.49-2.05,1.13,1.13,0,0,0-1.49-.38c-2.09,1.62,2.26,4.82,3.78,4.94a7,7,0,0,0,4.79-1A1,1,0,0,0,101.18,46.19Z"/><path class="cls-1" d="M87.38,52.83a5.76,5.76,0,0,1-5-2.39A1.21,1.21,0,0,0,80.78,50c-2.29,1.87,2.52,5.59,4.2,5.74a7.32,7.32,0,0,0,5.25-1.09,1.19,1.19,0,0,0,.5-1.23C90.28,51.68,88.42,53,87.38,52.83Z"/><path class="cls-5" d="M122.07,35a29.56,29.56,0,0,1-1.19,8.32,23.34,23.34,0,0,1-3.37.25c-9.37,0-17.31-5.71-20.1-13.62a.84.84,0,0,0-1.21-.47,16.22,16.22,0,0,1-8.39,2.3c-8,0-14.46-5.51-15.07-12.52a26.87,26.87,0,0,1,17.71-12,25.56,25.56,0,0,1,4.66-.42c.35,0,.69,0,1,0a26.12,26.12,0,0,1,13.64,4.51A28.49,28.49,0,0,1,122.07,35Z"/><path class="cls-6" d="M19.5,55.55S29.05,30.67,1.17,24c0,0-8,27.36,17.8,31.55Z"/><path class="cls-6" d="M19.49,57S40,54.12,39.38,28.46c0,0-12,2.35-19.5,24.48Z"/><path class="cls-7" d="M99.59,76.05A3.54,3.54,0,0,0,98,75.57a40.55,40.55,0,0,0-9.79.22c-5.54.93-11,2.52-16.49,3.58-9.13,1.76-18.28,2-27.31-.7-1.44-.43-2.83-1-4.22-1.56-.65-.26-1.25-.63-2-1-2.26-1.24-5.46-3.4-5.46-3.4L26,67.23l.12-.07c-2.52-1.26-4-5.78-4.35-8.93-.16-1.67,8.74-13.11,8.74-13.11l-10,8.8C17,35.15,7.65,34.71,7.65,34.71a24.91,24.91,0,0,1,7.54,18.94c-.16,5.65,0,11,.32,15.33l-.12.09q.21,3.5.71,6.82c.24,2.21.42,3.51.42,3.51l.14-.27c5.12,26.38,23.69,44.11,47,49.62a1.26,1.26,0,0,0,.81-2.37c-24-10.9-31.12-26.3-33.6-29.61a3.24,3.24,0,0,1-.3-.79l.21-.2c3.9,2.84,7.69,5.87,11.73,8.49,9.71,6.29,20.42,8.56,31.89,7.45,1.63-.16,3.26-.35,4.87-.67a6.37,6.37,0,0,0,1.74-1l-.17-.47a10.05,10.05,0,0,0-1.45-.16c-15.32.28-28.63-5-40.13-14.87A47.41,47.41,0,0,1,25.54,75l.1-.09c.59.52,1.19,1,1.77,1.57A37.41,37.41,0,0,0,43.58,85c6.87,1.88,13.88,1.93,21,1.34,8.17-.69,16.12-2.57,24.13-4.17,1-.19,2-.29,2.92-.42a7.86,7.86,0,0,1,.91.07C98.36,79.15,100,77.3,99.59,76.05Z"/></g></g></svg>