<svg xmlns="http://www.w3.org/2000/svg" xmlns:xlink="http://www.w3.org/1999/xlink" width="668" zoomAndPan="magnify" viewBox="0 0 501 489.749987" height="653" preserveAspectRatio="xMidYMid meet" version="1.2"><defs><clipPath id="9678826439"><path d="M 76 85 L 453 85 L 453 447 L 76 447 Z M 76 85 "/></clipPath><clipPath id="f9cc86e0ac"><path d="M 500.429688 257.359375 L 196.601562 489.410156 L 0.0429688 232.050781 L 303.867188 0.00390625 Z M 500.429688 257.359375 "/></clipPath><clipPath id="2b22203a94"><path d="M 500.429688 257.359375 L 196.601562 489.410156 L 0.0429688 232.050781 L 303.867188 0.00390625 Z M 500.429688 257.359375 "/></clipPath><clipPath id="30fbb9d2f8"><path d="M 323 144 L 452 144 L 452 285 L 323 285 Z M 323 144 "/></clipPath><clipPath id="20f613c2a5"><path d="M 385.054688 316.214844 L 310.625 183.484375 L 425.699219 118.957031 L 500.128906 251.683594 Z M 385.054688 316.214844 "/></clipPath><clipPath id="e7be83abd7"><path d="M 385.054688 316.214844 L 310.625 183.484375 L 425.699219 118.957031 L 500.128906 251.683594 Z M 385.054688 316.214844 "/></clipPath></defs><g id="2e7a75019b"><g clip-rule="nonzero" clip-path="url(#9678826439)"><g clip-rule="nonzero" clip-path="url(#f9cc86e0ac)"><g clip-rule="nonzero" clip-path="url(#2b22203a94)"><path style=" stroke:none;fill-rule:nonzero;fill:#f7dbf0;fill-opacity:1;" d="M 452.105469 212 C 449.285156 190.734375 431.253906 174.625 413.914062 161.707031 C 396.578125 148.789062 377.464844 135.34375 370.273438 114.972656 C 368.09375 108.816406 367.082031 102.148438 363.484375 96.667969 C 356.617188 86.199219 342.097656 83.332031 330.492188 86.589844 C 318.886719 89.84375 309.425781 97.824219 300.054688 105.289062 C 290.683594 112.757812 280.527344 120.121094 268.535156 121.785156 C 244.199219 125.160156 221.671875 104.46875 196.972656 102.160156 C 178.210938 100.410156 160.234375 109.714844 147.234375 122.859375 C 134.230469 136.003906 125.402344 152.722656 116.742188 169.199219 C 103.917969 193.601562 91.011719 218.210938 83.378906 244.921875 C 76.285156 269.757812 73.953125 296.800781 81.285156 322.191406 C 88.613281 347.585938 106.628906 371.011719 131.050781 380.675781 C 151.085938 388.601562 175.957031 388.277344 189.664062 405.242188 C 197.71875 415.207031 199.925781 429.324219 209.351562 437.984375 C 230.878906 457.761719 264.707031 437.367188 280.203125 421.535156 C 298.742188 402.59375 306.78125 377.019531 309.679688 350.640625 C 311.554688 333.578125 311.023438 314.425781 323.625 301.648438 C 342.40625 282.613281 376.113281 282.273438 400.328125 274.117188 C 426.425781 265.328125 456.386719 244.320312 452.105469 212 "/></g></g></g><g clip-rule="nonzero" clip-path="url(#30fbb9d2f8)"><g clip-rule="nonzero" clip-path="url(#20f613c2a5)"><g clip-rule="nonzero" clip-path="url(#e7be83abd7)"><path style=" stroke:none;fill-rule:nonzero;fill:#44854b;fill-opacity:1;" d="M 331.777344 177.988281 C 328.632812 181.539062 326.289062 185.554688 324.746094 190.039062 C 321.019531 201.523438 327.023438 210.28125 333.972656 220.25 C 340.671875 229.925781 341.066406 230.25 348 237.417969 C 362.089844 251.988281 359.734375 250.320312 366.710938 257.527344 C 372.78125 263.820312 377.191406 265.632812 385.394531 268.339844 C 392.335938 270.609375 397.328125 268.546875 401.835938 266.886719 C 403.289062 268.523438 413.074219 282.390625 424.621094 284.609375 C 437.179688 287.007812 444.3125 271.992188 447.214844 259.648438 C 450.019531 247.71875 450.539062 239.789062 451.757812 201.550781 C 452.066406 191.082031 451.457031 180.667969 449.933594 170.308594 C 449.574219 166.886719 448.878906 163.535156 447.851562 160.25 C 447.304688 158.414062 446.523438 156.675781 445.515625 155.042969 C 444.925781 154.03125 444.148438 153.203125 443.175781 152.550781 C 442.203125 151.898438 441.140625 151.496094 439.980469 151.335938 C 438.792969 151.210938 435.542969 149.3125 431.546875 147.625 C 428.152344 146.140625 424.621094 145.136719 420.953125 144.601562 C 417.285156 144.070312 413.613281 144.035156 409.9375 144.492188 C 405.28125 145.09375 407.074219 144.828125 376.644531 151.457031 C 364.375 154.144531 355.054688 158.644531 348.835938 163.238281 C 345.734375 165.523438 336.046875 172.976562 331.777344 177.988281 Z M 447.679688 236.726562 C 447.160156 246.5 445.285156 259.828125 441.359375 268.832031 C 436.757812 279.367188 430.792969 285.683594 420.441406 280.507812 C 414.160156 277.371094 408.710938 271.507812 404.449219 265.878906 C 404.367188 265.761719 404.300781 265.640625 404.242188 265.511719 C 407.476562 263.097656 410.277344 260.257812 412.640625 256.988281 C 419.296875 248.4375 425.210938 239.402344 430.382812 229.882812 C 439.140625 213.722656 443.6875 202.886719 448.578125 176.886719 C 448.703125 177.324219 448.796875 177.765625 448.863281 178.214844 C 450.195312 193.59375 449.4375 204.238281 447.679688 236.726562 Z M 448.578125 176.886719 Z M 436.414062 154.402344 C 439.238281 153.859375 442.007812 155.496094 442.617188 156.71875 C 445.300781 162.203125 446.789062 165.359375 446.246094 171.460938 C 445.398438 181.210938 442.421875 192.921875 439.511719 202.304688 C 433.671875 221.351562 414.089844 252.910156 404.738281 261.089844 C 404.035156 261.699219 403.28125 262.234375 402.421875 262.921875 C 402.164062 262.644531 401.929688 262.355469 401.714844 262.046875 C 395.550781 252.070312 394.886719 251.503906 390.214844 240.789062 C 381.105469 220.011719 384.25 227.003906 370.726562 205.039062 C 368.175781 201.195312 366.390625 197.023438 365.371094 192.523438 C 364.5 188.703125 367.457031 184.59375 370.589844 182.203125 C 383.839844 172.0625 396.535156 170.613281 413.542969 163.972656 C 423.792969 160.066406 427.8125 156.0625 436.453125 154.378906 Z M 376.742188 154.898438 C 407.6875 148.027344 405.730469 148.503906 410.5 147.875 C 418.535156 146.839844 425.28125 148.621094 432.40625 151.832031 C 432.558594 151.921875 432.703125 152.023438 432.84375 152.132812 C 424.042969 155.503906 431.328125 152.359375 416.59375 159.605469 C 413.371094 161.199219 399.855469 165.421875 388.234375 169.496094 C 381.207031 171.964844 372.175781 176.800781 367.480469 181.238281 C 355.75 192.339844 367.132812 203.660156 379.621094 224.757812 C 384.25 232.558594 387.109375 242.164062 392.570312 252.382812 C 396.433594 259.582031 398.742188 262.339844 399.796875 264.226562 C 395.339844 266.066406 391.09375 267.085938 385.902344 265.285156 C 368.847656 259.367188 373.535156 258.367188 349.554688 234.371094 C 344 228.792969 342.535156 227.113281 337.269531 219.261719 C 330.773438 209.601562 328.769531 206.910156 327.492188 202.074219 C 323.550781 187.140625 338.371094 175.398438 350.574219 166.34375 C 354.265625 163.585938 366.25 157.261719 376.742188 154.898438 Z M 376.742188 154.898438 "/></g></g></g></g></svg>