<svg xmlns="http://www.w3.org/2000/svg" viewBox="0 0 395.43 70.75"><defs><style>.cls-1{fill:#664c65;}.cls-2{fill:#698a60;stroke:#698a60;stroke-miterlimit:10;stroke-width:2px;}</style></defs><g id="Layer_2" data-name="Layer 2"><g id="Layer_1-2" data-name="Layer 1"><path class="cls-1" d="M187.34,18.58c1.75-2,3.44-4.06,5.27-6A35.2,35.2,0,0,1,211.27,2c6.3-1.31,12.82,1.56,15.46,7a9.43,9.43,0,0,1,1,3.54,55.66,55.66,0,0,1-2,17.76c-1.4,5-2.12,10.22-3.15,15.34-.3,1.5-.64,3-.91,4.49-.42,2.45-.14,5,2,6.24,1.26.73,3.43.56,4.94.05A15.89,15.89,0,0,0,234,53.2a6.17,6.17,0,0,0,1.63-3.68,62.42,62.42,0,0,0,.07-7.11c-.06-6.48,1.86-12.5,4.32-18.39A42.7,42.7,0,0,1,252.54,7.77,30.37,30.37,0,0,1,266.63,1.5a25.77,25.77,0,0,1,11,.61c5.38,1.28,10.23,7,10.49,13,.45,10.35-4.47,17.58-12.07,23.75-5.58,4.52-12,6.67-18.93,7.6-2.18.29-4.34.67-6.48,1,.54,8.76,8.76,11.46,15,10.39,5.36-.92,9.47-3.91,13.78-6.72a11.94,11.94,0,0,1,2.89-1.42c2.38-.76,4.07.78,4.37,3.26.56,4.7-2.43,7.43-5.42,10a30.92,30.92,0,0,1-17.32,7.61c-9.41.87-18.26-.84-24.28-9.34a3,3,0,0,0-.51-.49c-.18-.15-.38-.27-.77-.54-2.12,1.86-4.14,3.93-6.45,5.6-5.92,4.29-12.39,6.16-19.34,2.79-4.5-2.18-6.06-6.49-6.37-11.21-.64-10.07,1.8-19.69,4.46-29.28a29.61,29.61,0,0,0,1.12-6.32c.18-3.79-2.23-5.75-5.88-4.6a16.41,16.41,0,0,0-5.27,3.17c-4.58,3.76-7.75,8.67-10.23,14-3.49,7.4-6.51,15-7.3,23.27a56.11,56.11,0,0,1-1.46,7.23,6.7,6.7,0,0,1-6.08,4.94,10.52,10.52,0,0,1-7.15-2.35c-2-1.53-2-3.81-2-5.67a109,109,0,0,1,1.22-13.11c.71-5.42,1.66-10.81,2.4-16.22.71-5.12,1.19-10.26,1.94-15.37a87.12,87.12,0,0,1,2.1-10.38A4.37,4.37,0,0,1,176.77,4a23.1,23.1,0,0,1,7.32-1c2.78.16,4.13,2.49,3.81,6.17-.25,2.88-.88,5.72-1.34,8.58Zm63.79,18.71c5.44-1.14,10.22-2.87,14.31-6,3.75-2.89,7.31-6.13,8.18-11.07a6.63,6.63,0,0,0-1.13-5,6,6,0,0,0-4.8-1.84,13,13,0,0,0-6.15,3.42C256.09,22.44,253,29.36,251.13,37.29Z"/><path class="cls-1" d="M322,.07c3.75-.45,8.4,1.28,12.39,4.39a10.33,10.33,0,0,1,3.19,5.47c.79,3.31,1.16,6.76-1.83,9.56-3.24,3-7.22,2.25-9.06-1.76-1.61-3.52-2.83-5.13-6.67-5a7,7,0,0,0-6.8,4.65c-1.16,2.89-.05,5.34,2,7.11,2.92,2.51,6.21,4.59,9.31,6.9,3.32,2.48,6.62,4.88,9,8.49,2.88,4.34,3,9,2.28,13.67-1.64,10.13-10.36,15.23-19.35,16.61-6.59,1-13,.63-18.86-2.53-7-3.76-9-8.83-8.21-16.36.39-3.75,6.31-7,9.64-5.21,1.56.86,2.78,3.09,3.32,4.94,1.9,6.54,11,9.38,16.77,4.53,3.46-2.9,3.52-7.55.06-11.14-2.72-2.83-6.1-5.06-9.3-7.4-4.35-3.18-8.77-6.28-11-11.41-2.57-5.89-1.69-11.57,1.92-16.68C305.52,2.17,312.63.25,322,.07Z"/><path class="cls-1" d="M360.71,15.59c-4.3,0-8.16-.15-12,0-4.57.23-7.9-2-7.19-7.23.17-1.3,0-2.91.66-3.82,1-1.3,2.2-2.57,4.43-2.55,14.87.12,29.74,0,44.61,0a4.24,4.24,0,0,1,4.2,4.27c0,1-.11,2.06,0,3.08.43,4.67-2.6,6-6.27,6.19-4.25.2-8.52,0-13,0-.22,2.56-.52,5-.62,7.46-.2,4.61-.27,9.23-.43,13.85-.12,3.52-.27,7-.46,10.55-.31,5.75-.5,11.52-1.09,17.25a4.46,4.46,0,0,1-3.5,4.19c-3.33.69-6.75,1.49-9.67-.8a6,6,0,0,1-2-4.06c-.13-4.78.12-9.57.32-14.36.26-6.18.56-12.35.94-18.53C359.86,26.11,360.3,21.06,360.71,15.59Z"/><path class="cls-2" d="M50,49.07a21,21,0,0,1-1.93,6.21,20.73,20.73,0,0,1-3.38,4.92,21.71,21.71,0,0,1-4.56,3.68,28,28,0,0,1-5.49,2.53,34.93,34.93,0,0,1-6.17,1.46,48.59,48.59,0,0,1-7.11.48H4.31a3.52,3.52,0,0,1-2.6-1,3.55,3.55,0,0,1-.62-3.16L10,8.18A4.73,4.73,0,0,1,11.58,5a4.67,4.67,0,0,1,2.92-1H30.64a41.2,41.2,0,0,1,9.85,1,16.63,16.63,0,0,1,6.43,3,10.58,10.58,0,0,1,3.49,5.09,15.54,15.54,0,0,1,.35,7.26,17.29,17.29,0,0,1-1.3,4.39,15.64,15.64,0,0,1-2.33,3.75,16.11,16.11,0,0,1-3.28,3,17,17,0,0,1-4.13,2.09,14.59,14.59,0,0,1,4.77,1.74A11.34,11.34,0,0,1,48,38.56a12.2,12.2,0,0,1,2,4.6A15.73,15.73,0,0,1,50,49.07ZM37.44,22a9.15,9.15,0,0,0,0-3.48A5,5,0,0,0,36,16a6.83,6.83,0,0,0-2.76-1.57,16.59,16.59,0,0,0-4.76-.54h-6.6L19.24,30.54h7.31a13.32,13.32,0,0,0,4.62-.67A9.66,9.66,0,0,0,34.27,28a9.32,9.32,0,0,0,2.1-2.73A11.2,11.2,0,0,0,37.44,22Zm-1,27.52a9.8,9.8,0,0,0-.11-4,6.22,6.22,0,0,0-1.72-3,8.37,8.37,0,0,0-3.39-1.84,20.36,20.36,0,0,0-5.71-.64H17.73L14.84,58.36h9.44A16.82,16.82,0,0,0,29,57.79a11.48,11.48,0,0,0,3.5-1.69A9.8,9.8,0,0,0,35,53.32,10.38,10.38,0,0,0,36.41,49.52Z"/><path class="cls-2" d="M109.62,44.4A33.31,33.31,0,0,1,106.2,55a25.83,25.83,0,0,1-6.36,7.9,27.39,27.39,0,0,1-9.13,4.92A38.15,38.15,0,0,1,79,69.49,33.88,33.88,0,0,1,68.38,68,17.23,17.23,0,0,1,61,63.38a16.35,16.35,0,0,1-3.88-7.68A28.73,28.73,0,0,1,57,45l6.19-39.1A1.74,1.74,0,0,1,63.65,5a2.57,2.57,0,0,1,1.17-.65,11.83,11.83,0,0,1,2.08-.4,28,28,0,0,1,3.2-.15,26.3,26.3,0,0,1,3.11.15,9.19,9.19,0,0,1,1.92.4,1.88,1.88,0,0,1,1,.65,1.24,1.24,0,0,1,.18.89l-6,37.95a20.19,20.19,0,0,0-.11,6.64,10.07,10.07,0,0,0,2,4.64,9,9,0,0,0,3.79,2.76,14.43,14.43,0,0,0,5.34.92,16.37,16.37,0,0,0,5.67-.95,13.57,13.57,0,0,0,4.56-2.75,15.31,15.31,0,0,0,3.31-4.47,20.45,20.45,0,0,0,1.88-6l6.13-38.7a1.67,1.67,0,0,1,.44-.89,2.56,2.56,0,0,1,1.14-.65,11.3,11.3,0,0,1,2.08-.4,28.23,28.23,0,0,1,3.18-.15,25.63,25.63,0,0,1,3.08.15,9.25,9.25,0,0,1,1.9.4,1.71,1.71,0,0,1,.94.65,1.28,1.28,0,0,1,.16.89Z"/><path class="cls-2" d="M160.94,66.41a2,2,0,0,1-.43,1,2.46,2.46,0,0,1-1.15.69,10.32,10.32,0,0,1-2.18.43c-.91.09-2.05.14-3.4.14a30.46,30.46,0,0,1-4.61-.24,4,4,0,0,1-1.92-.75,2.87,2.87,0,0,1-.78-1.19L131.88,36l-4.83,30.5a1.8,1.8,0,0,1-.45.94,2.65,2.65,0,0,1-1.15.67,9.57,9.57,0,0,1-2,.43,31.24,31.24,0,0,1-3.21.14,29.7,29.7,0,0,1-3.13-.14,7.74,7.74,0,0,1-1.94-.43,2,2,0,0,1-1-.67,1.29,1.29,0,0,1-.17-.94L123.57,5.9a1.7,1.7,0,0,1,.48-.94,2.68,2.68,0,0,1,1.17-.65,11,11,0,0,1,2.07-.4,28.23,28.23,0,0,1,3.18-.15,27,27,0,0,1,3.16.15,9.19,9.19,0,0,1,1.92.4,1.71,1.71,0,0,1,.94.65,1.34,1.34,0,0,1,.15.94L132.3,33.27,155.46,6a4.71,4.71,0,0,1,1-1.07,4.56,4.56,0,0,1,1.4-.67A11,11,0,0,1,160,3.86c.84-.06,1.91-.1,3.2-.1a28.59,28.59,0,0,1,3.25.15,9,9,0,0,1,2,.42,1.86,1.86,0,0,1,1,.68,1.28,1.28,0,0,1,.16.89,4.42,4.42,0,0,1-.73,1.74c-.39.59-1.1,1.54-2.13,2.83l-21.3,23.1L160,62.63a18.85,18.85,0,0,1,.89,2.71A3.45,3.45,0,0,1,160.94,66.41Z"/></g></g></svg>