<svg xmlns="http://www.w3.org/2000/svg" viewBox="0 0 541.56 687.76"><defs><style>.cls-1{fill:#633b4a;}.cls-2{fill:#e28fa3;}.cls-3{fill:#f9bec3;}.cls-4{fill:#c36f86;}.cls-5{fill:#696160;}.cls-6{fill:#9d765a;}.cls-7{fill:#e08fa3;}.cls-8{fill:#a65c6f;}.cls-9{fill:#633d4f;}.cls-10{fill:#e08da1;}.cls-11{fill:#5c4831;}.cls-12{fill:#e198ac;}.cls-13{fill:#f7d0d3;}.cls-14{fill:#e098ac;}.cls-15{fill:#698a60;}.cls-16{fill:#39543f;}</style></defs><g id="Layer_2" data-name="Layer 2"><g id="Layer_1-2" data-name="Layer 1"><path class="cls-1" d="M220.07,98.88S185.8,63.82,185.41,37.43c0,0-2-5.91,7.88-2S246.07,54,277.19,53.58c0,0,7.42-54,48.85-53.58,41,.4,44.12,30.73,44.12,30.73S384,28,384.73,31.52s1.58,11.42-5.12,15.36S370.16,54,370.16,54s-1.18,46.09-23.24,55.94S259.47,114.63,220.07,98.88Z"/><path class="cls-2" d="M301.91,510.79c-6.07,0-9.61-.24-9.76-.25-2-.08-54-2.24-109.31-22C108.56,462,65,416.16,56.9,355.93,46.11,275.86,74.83,219.38,100.82,186.1c28.15-36,58.53-52.94,59.81-53.64l.36-.2.37-.14c34.24-13.21,72.81-19.91,114.64-19.91,42.71,0,87.76,6.82,133.91,20.28,19,5.56,50.18,31.26,73.51,74.54,29.4,54.56,35.35,117.86,16.77,178.25-15.4,50.05-48.93,86-99.67,106.82-39.6,16.26-78.77,18.69-98.6,18.69Z"/><path class="cls-1" d="M276,118.26c58.15,0,108.38,13.09,132.21,20,38.55,11.24,126.88,113,86.2,245.2-34.78,113-157.55,121.23-192.49,121.23-5.95,0-9.35-.23-9.35-.23S82,496.57,62.89,355.13c-20.34-151,100.65-217.37,100.65-217.37,37.62-14.51,76.55-19.5,112.46-19.5m0-12.1c-42.58,0-81.88,6.83-116.81,20.31l-.76.29-.71.39c-1.32.73-32.76,18.22-61.67,55.23-26.71,34.19-56.22,92.2-45.15,174.36,8.43,62.61,53.36,110.16,129.91,137.51,55.12,19.69,107.15,22.17,111.13,22.34.9,0,4.45.25,10,.25,20.27,0,60.34-2.49,100.9-19.14,23.51-9.65,43.78-22.76,60.24-38.94,19.84-19.52,34.28-43.64,42.91-71.7,10.38-33.7,13.44-67.8,9.11-101.34a234.75,234.75,0,0,0-26.33-81.56c-20.7-38.41-52.42-70.27-77.15-77.48-46.69-13.62-92.31-20.52-135.6-20.52Z"/><path class="cls-3" d="M315.49,486.9c-12.63,0-24.6-.61-35.66-1.26-32.22-1.92-77.15-20.43-104.87-57.48-23.69-31.68-30.75-72.06-20.41-116.79C180.46,199.24,297.32,196,310.56,196c.89,0,1.35,0,1.35,0,3.45.13,83.34,3.58,123,44.18C477.39,283.59,483.33,374.52,447.4,431c-31.9,50.13-90.56,55.93-131.91,55.93Z"/><path class="cls-1" d="M310.56,202.06h1.19s80.4,3,118.88,42.36,48,126.23,11.67,183.29c-28.57,44.89-80.94,53.13-126.82,53.13-12.44,0-24.41-.61-35.29-1.25-51-3-146.11-52.74-119.75-166.87,24.87-107.6,137.35-110.67,150.12-110.67m0-12.11c-6.41,0-40.21.77-75.33,16-45.46,19.69-75.4,55.67-86.58,104.07-10.75,46.52-3.32,88.63,21.47,121.77,28.88,38.61,75.73,57.9,109.35,59.9,11.15.66,23.23,1.27,36,1.27,29.28,0,53.43-3.39,73.83-10.38,27.52-9.42,48.78-25.69,63.2-48.35,18.57-29.19,27.12-66.74,24.06-105.74C473.63,290.91,460,257.19,439.28,236c-41.37-42.3-123.6-45.87-127.08-46h-.12s-.52,0-1.52,0Z"/><path class="cls-4" d="M330.77,681.71c-88.41,0-195.56-12-318.45-35.79l-5.59-1.08.73-5.64a239.92,239.92,0,0,1,14.43-52.48c14.91-37.41,37.2-65,64.5-79.88L91,503.72a25.19,25.19,0,0,1-2.11-15c1.49-8.26,7.31-15.33,17.3-21a82.78,82.78,0,0,1,14.74-6.43l2.67-.9L126,461.9c.82.5,83.29,50.13,179,50.13,48.44,0,92.22-12.61,130.11-37.49l1.73-1.14,2.06.16a17.74,17.74,0,0,1,16.28,17.15,30.2,30.2,0,0,1-.79,8.44c9.68,4.83,30,17.63,37.43,42.62,10,4.05,33.82,21.41,43,95.73l.4,3.18-2.41,2.11C530.93,644.38,486.56,681.71,330.77,681.71Z"/><path class="cls-1" d="M122.83,467.07s83.5,51,182.14,51c43.49,0,89.92-9.91,133.43-38.48,0,0,10.07.78,10.71,11.47a28.88,28.88,0,0,1-2.05,11.44s32,11.66,39.76,44.08c0,0,31.13,3.9,41.94,91.65,0,0-42.68,37.41-198,37.41-76,0-179.06-9-317.3-35.68,0,0,12.1-93.38,76.07-128l9.52-6.47S83.89,487.38,109.15,473a75.45,75.45,0,0,1,13.68-5.95m1.49-13.26L119,455.59a89.54,89.54,0,0,0-15.85,6.93C91.55,469.1,84.73,477.58,82.9,487.7a30,30,0,0,0,.76,13.68l-.43.29C15.08,539,2,634.37,1.46,638.42L0,649.7l11.17,2.16c123.27,23.82,230.8,35.9,319.6,35.9,65.63,0,119.74-6.48,160.83-19.25,31.62-9.84,43.85-20,45.14-21.17l4.82-4.22-.79-6.36c-4.75-38.56-14-67-27.42-84.61-6-7.88-12-12.24-16.57-14.65C489.15,515.07,472,502.15,461,495.89a33.64,33.64,0,0,0,.16-5.55,23.94,23.94,0,0,0-21.86-22.81l-4.12-.32-3.46,2.27C394.87,493.7,352.21,506,305,506c-93.89,0-175-48.75-175.84-49.25l-4.81-2.92Z"/><path class="cls-1" d="M166.45,671.42l-12-1.5c6.05-48.2-3.48-89.87-28.3-123.86a149.56,149.56,0,0,0-18.74-21.12C94,515.19,85.88,508.62,85.73,508.5l6.69-10c.61.33,10.35,5.66,22.7,17.08C151,541.5,224.73,590,287.31,600.23l74.89,3.87-.62,12.09-75.87-4c-37.55-6-82.65-25.36-134-57.41q-4.55-2.84-8.86-5.62C158.93,575.3,173.46,615.51,166.45,671.42Z"/><path class="cls-1" d="M417.09,682.47l-5.79-10.63c.79-.43,79.13-44.31,74.24-129.21l12.08-.7c2.22,38.4-11,74.89-38.26,105.53C438.9,670.46,418,682,417.09,682.47Z"/><path class="cls-1" d="M379.27,576.2l-2.65-11.81c62.5-14,73.12-71.28,73.54-73.71l11.94,2C462,493.38,449.86,560.36,379.27,576.2Z"/><path class="cls-5" d="M440.14,576.43s-41.94-29.4-73.93,1.3v41.93s16,25.07,33.29,37.18c0,0,23.69-11.64,36.31-31.56C444,612.31,440.14,576.43,440.14,576.43Z"/><path class="cls-1" d="M399,663.84,396,661.79C378,649.15,361.79,624,361.11,622.91l-.95-1.49V575.14l1.86-1.78c28.15-27,65.68-13,81.59-1.89l2.25,1.58.29,2.73c.42,3.88,3.86,38.4-5.22,52.74-13.38,21.12-37.73,33.24-38.76,33.75Zm-26.69-46c3.34,5,15.05,21.73,27.74,31.82,6.58-3.78,21.8-13.58,30.69-27.62,4.79-7.56,4.85-28.65,3.7-42.08a77.37,77.37,0,0,0-21-8.59c-16-3.8-29.87-.76-41.13,9Z"/><path class="cls-6" d="M149.81,76.12s114.6,52.16,186.92,37.94c0,0-22.92,26.47-94.84,22.92C241.89,137,168.78,136.58,149.81,76.12Z"/><path class="cls-1" d="M254.86,143.36q-6.31,0-13.18-.34c-4.19-.09-78.05-2.65-97.64-65.09a6.05,6.05,0,0,1,8.28-7.32c1.13.52,113.68,51.2,183.24,37.51a6.05,6.05,0,0,1,5.74,9.9C340.35,119.12,318.59,143.35,254.86,143.36ZM161.11,87.48c8.76,16.3,23.37,28.36,43.62,35.94a121.77,121.77,0,0,0,37.2,7.5h.26c33.29,1.65,55.32-3.42,68.43-8.34-26.76.27-58.94-5.23-96.2-16.37C192.14,99.57,173.15,92.37,161.11,87.48Z"/><path class="cls-6" d="M380.59,91.14s41.49-16.6,45.05-21c0,0,15.81,61.25-113.81,78.25,0,0-60.06,3.16-90.89-13.84,0,0,69.16,2.77,93.26-7.11S380.59,91.14,380.59,91.14Z"/><path class="cls-1" d="M300,154.74c-19.61,0-58.38-1.8-82-14.84a6,6,0,0,1,3.17-11.34c.67,0,68.11,2.6,90.72-6.67,23.34-9.57,65-35.62,65.47-35.88a5.79,5.79,0,0,1,1-.49c18.15-7.26,39.55-16.69,42.82-19.39a6,6,0,0,1,10.34,2.55c.18.71,4.36,17.68-8.56,36.8-16.95,25.11-54.07,41.58-110.32,49l-.47,0C311.49,154.51,307,154.74,300,154.74Zm-34.9-14.15a304.23,304.23,0,0,0,46.15,1.81c65-8.56,91-28.28,101.37-43.33A41.34,41.34,0,0,0,420,80.59c-9.6,4.87-24,10.91-36.62,16-4.93,3.06-43.62,27-66.84,36.53C305,137.82,284.32,139.82,265.14,140.59ZM421.08,66.22l-.13.14Z"/><path class="cls-6" d="M145,104.44s54.79,76.43,166.21,67.68,120.17-71.37,120.17-71.37l-15.66,2.31s-90.24,101.29-246.31,6Z"/><path class="cls-1" d="M293.32,178.88C192.11,178.88,142.24,111,140.05,108a6.05,6.05,0,0,1,6-9.47l24.4,4.6a6.22,6.22,0,0,1,2,.79C234.8,141.9,295.9,153,349.23,136c40-12.76,61.73-36.75,61.94-37a6.1,6.1,0,0,1,3.64-2l15.66-2.3a6,6,0,0,1,6.87,6.82c-.38,2.76-10.74,67.54-125.69,76.56C305.37,178.65,299.25,178.88,293.32,178.88ZM161.39,113.69c21,20.68,70.87,58.56,149.32,52.39,81-6.35,105.14-41.66,112-57.94l-4.1.6c-5.94,6.05-28.35,26.9-65.75,38.81-71.22,22.71-140.14-5.12-185.73-32.77Z"/><path class="cls-7" d="M371.51,35.05c-3.08.17-7.13-1.11-10.06-2.25a41.21,41.21,0,0,0-3.26-7.9c-11.95-22.13-31-21.82-47.62-12-9.83,5.8-16.25,15.44-20.09,26.36s-2,15.9,7.45,22.42c.66.45,1.37.84,2,1.34,5.69,4.5,8,12.17,5,17.52a24.38,24.38,0,0,1-2.36-4C298.7,65.24,289.94,61.15,279,59.93c-13.84-1.54-27.74-2.8-41.44-5.17-11.16-1.94-22.62-2.76-33.18-7.88-3.25-1.57-5.48-1.08-5.52-.48-2.57,0,.16,5.74,1.42,8.14,6.37,12,14.9,22.29,24.68,31.68,8.87,8.5,19.74,13.23,31.23,15.93,27.4,6.43,48.42,10.2,73.21,2.41,11.75-3.7,20.81-12.54,23.34-16,6.16-8.39,10.32-21.14,10.73-31.46a112.91,112.91,0,0,0-.08-13.65C371.32,42.87,376.75,34.76,371.51,35.05Z"/><circle class="cls-1" cx="338.3" cy="40.11" r="7.95"/><path class="cls-8" d="M449.11,491.07c-46.38,48.16-118.39,49.69-118.39,49.69C141.87,542.36,109.19,473,109.19,473l0,0a75.45,75.45,0,0,1,13.68-5.95S296.18,573,438.4,479.6C438.4,479.6,448.47,480.38,449.11,491.07Z"/><path class="cls-9" d="M210.3,286.94a4.94,4.94,0,0,1-2.37-.6,5,5,0,0,1-2.07-6.82c13-24.3,39.09-22.79,51.08-18.61a5,5,0,0,1-3.31,9.53c-1.13-.39-26.76-8.85-38.88,13.83A5,5,0,0,1,210.3,286.94Z"/><path class="cls-9" d="M422.37,289.76a5,5,0,0,1-4.5-2.76c-.55-1.07-13.17-24.92-37.61-17a5,5,0,0,1-3.11-9.6c26.21-8.5,44,10.68,49.71,22a5.05,5.05,0,0,1-4.49,7.33Z"/><path class="cls-9" d="M413.78,336c-8.92-12.75-21.11-10.88-32.52-2.56-7.79,4.76-15.08-6.51-7.51-11.66,8.06-4.77,17.2-8.31,26.84-6.88s17.59,8,22.13,16.43c2.88,6-5.61,10.39-8.94,4.67Z"/><path class="cls-9" d="M218,327.19c13.77-17.39,33.81-15.37,49.43-1.73,7.62,6.45-2.27,17.21-9.39,10.17l-3.73-3.39c-9.1-7.6-20-7.78-28.26,1-4.25,5.11-11.88-.68-8-6.08Z"/><path class="cls-9" d="M334.16,379.1a5,5,0,0,1-1.18-10c.66-.18,7-2.14,7.21-10.72.22-7.95-12.95-9.2-13.08-9.21a5,5,0,0,1,.83-10.05c7.9.64,22.73,5.56,22.33,19.55-.38,13.25-9.92,19-14.92,20.24A5.37,5.37,0,0,1,334.16,379.1Z"/><path class="cls-9" d="M305.05,405.39c-20.94-2.71-33.75-12.73-36-1.3,0,0-14.18,24.53,41.12,46.28,0,0,24.33,2.94,42-13.64s23.59-26.92,23.59-32.08-2.94-8.11-12.53-5.9S325,408,305.05,405.39Z"/><path class="cls-10" d="M343.38,426.77l-49-.37s16.59,14.75,23.6,14.75S334.54,437.46,343.38,426.77Z"/><path class="cls-11" d="M425.45,607a17.35,17.35,0,0,0,1.49-7.05c0-9.27-7.19-16.79-16.05-16.79s-16.05,7.52-16.05,16.79a17.37,17.37,0,0,0,1.66,7.44C384.3,610.77,381,618,381,618l-8.32-6.71c-1.39,22.9,15.72,36.54,34.92,34.23,18.81-3.93,26.06-17.73,26-28.45C433.48,607.22,426.56,607,425.45,607Z"/><path class="cls-6" d="M380,629.07c1.88,1.37,3.69,2.82,5.63,4.08a23.3,23.3,0,0,0,15.3,3.57c.78-.08,1.56-.17,2.33-.32a3,3,0,0,0,.84-.48l-.08-.22a5.56,5.56,0,0,0-.7-.08,27.93,27.93,0,0,1-19.25-7.13,22.75,22.75,0,0,1-6.56-9.37l.05,0c.28.25.57.49.85.75a17.88,17.88,0,0,0,7.75,4.09,28.55,28.55,0,0,0,10.05.64,105.31,105.31,0,0,0,11.58-2c.46-.1.93-.14,1.4-.21a3.81,3.81,0,0,1,.43,0,6.85,6.85,0,0,1-.59.52,33.77,33.77,0,0,1-9.62,4.38,5.83,5.83,0,0,0-.85.19c-.19.07-.45.26-.45.4a.75.75,0,0,0,.35.57,21.17,21.17,0,0,0,2.57.79,27,27,0,0,0,13.16-.71,29.68,29.68,0,0,0,11.94-6.09c1-.84,1.84-1.77,2.82-2.71a5.8,5.8,0,0,1-.11.57,27.08,27.08,0,0,1-5.8,10.82A28.69,28.69,0,0,1,412,639.44a29.84,29.84,0,0,1-12.1,2.1,22.21,22.21,0,0,1-15.73-6.63,52.53,52.53,0,0,1-4.08-5.36,1.58,1.58,0,0,1-.15-.38Z"/><path class="cls-12" d="M383.59,619.63a25.77,25.77,0,0,1,13.07-9.17,2.06,2.06,0,0,1,2.58.61,14.7,14.7,0,0,0,9.42,4.66,8.06,8.06,0,0,0,2.11.22,22.46,22.46,0,0,0,9.13-3.05c1.21-.78,2.42-1.58,3.62-2.37a4,4,0,0,1,3.4-.63,2.65,2.65,0,0,1,2,3.38,11,11,0,0,1-2.4,4.56,23.51,23.51,0,0,1-9.66,6.83,27.83,27.83,0,0,1-7.73,1.85,14.79,14.79,0,0,0,1.78-1.3,21.5,21.5,0,0,0,2.07-2.3,4.35,4.35,0,0,0,.64-1.4,1.51,1.51,0,0,0-1.31-2.14,20,20,0,0,0-4.7.1c-2.65.45-5.26,1.21-7.9,1.72a27.06,27.06,0,0,1-13.11-.33c-.68-.21-1.35-.49-2-.75C384.25,620,384,619.82,383.59,619.63Z"/><path class="cls-13" d="M423.25,603.91a13,13,0,0,1-12.36,9.54c-7.14,0-12.93-6.06-12.93-13.53a13.87,13.87,0,0,1,2.2-7.55c.29,3.36,3.41,6,7.23,6a7.72,7.72,0,0,0,4.44-1.38,10.08,10.08,0,0,0,9.8,7A10.84,10.84,0,0,0,423.25,603.91Z"/><path class="cls-11" d="M405.06,603.05c-.12-.65-1-.25-1.39-.34a2.46,2.46,0,0,1-2-1.06.56.56,0,0,0-.68-.23c-1,.61.83,2.15,1.53,2.27a3.5,3.5,0,0,0,2.26-.21A.44.44,0,0,0,405.06,603.05Z"/><path class="cls-11" d="M413.8,605.29c-.19-.72-1-.19-1.45-.24a2.51,2.51,0,0,1-2.16-1,.54.54,0,0,0-.72-.18c-1,.78,1.09,2.31,1.82,2.37a3.38,3.38,0,0,0,2.29-.46A.48.48,0,0,0,413.8,605.29Z"/><path class="cls-11" d="M407.18,608.47a2.75,2.75,0,0,1-2.37-1.15.59.59,0,0,0-.79-.21c-1.1.89,1.21,2.68,2,2.75a3.48,3.48,0,0,0,2.52-.52.58.58,0,0,0,.24-.59C408.57,607.92,407.68,608.53,407.18,608.47Z"/><path class="cls-14" d="M423.82,599.92a14.15,14.15,0,0,1-.57,4,10.84,10.84,0,0,1-1.62.12A10.11,10.11,0,0,1,412,597.5a.4.4,0,0,0-.58-.22,7.83,7.83,0,0,1-4,1.1c-3.82,0-6.94-2.65-7.23-6a12.86,12.86,0,0,1,8.49-5.77,11.89,11.89,0,0,1,2.24-.21l.49,0a12.09,12.09,0,0,1,3.77.74,12,12,0,0,1,2.78,1.42A13.69,13.69,0,0,1,423.82,599.92Z"/><path class="cls-15" d="M374.62,609.77s4.58-11.93-8.79-15.13c0,0-3.83,13.12,8.54,15.13Z"/><path class="cls-15" d="M374.62,610.47s9.85-1.38,9.54-13.69c0,0-5.78,1.13-9.36,11.74Z"/><path class="cls-16" d="M413,619.61a1.58,1.58,0,0,0-.75-.23,20,20,0,0,0-4.7.1c-2.65.45-5.26,1.21-7.9,1.72a27.06,27.06,0,0,1-13.11-.33c-.68-.21-1.35-.49-2-.75-.31-.13-.6-.3-1-.49C382.51,619,381,618,381,618l-3.25-2.62.06,0c-1.21-.61-1.95-2.78-2.09-4.29-.08-.8,4.19-6.29,4.19-6.29L375.09,609c-1.66-9-6.15-9.22-6.15-9.22a12,12,0,0,1,3.62,9.08c-.08,2.72,0,5.28.15,7.36l-.06,0c.07,1.12.18,2.21.34,3.27s.2,1.68.2,1.68l.07-.13c2.46,12.66,11.36,21.17,22.53,23.81a.6.6,0,0,0,.38-1.14c-11.52-5.23-14.92-12.61-16.11-14.2a1.58,1.58,0,0,1-.15-.38l.1-.1c1.88,1.37,3.69,2.82,5.63,4.08a23.3,23.3,0,0,0,15.3,3.57c.78-.08,1.56-.17,2.33-.32a3,3,0,0,0,.84-.48l-.08-.22a5.56,5.56,0,0,0-.7-.08,27.93,27.93,0,0,1-19.25-7.13,22.75,22.75,0,0,1-6.56-9.37l.05,0c.28.25.57.49.85.75a17.88,17.88,0,0,0,7.75,4.09,28.55,28.55,0,0,0,10.05.64,105.31,105.31,0,0,0,11.58-2c.46-.1.93-.14,1.4-.21a3.81,3.81,0,0,1,.43,0C412.45,621.09,413.25,620.21,413,619.61Z"/></g></g></svg>