<svg xmlns="http://www.w3.org/2000/svg" xmlns:xlink="http://www.w3.org/1999/xlink" width="668" zoomAndPan="magnify" viewBox="0 0 501 489.749987" height="653" preserveAspectRatio="xMidYMid meet" version="1.2"><defs><clipPath id="2d5234b80a"><path d="M 76 85 L 453 85 L 453 447 L 76 447 Z M 76 85 "/></clipPath><clipPath id="7151428331"><path d="M 500.429688 257.359375 L 196.601562 489.410156 L 0.0429688 232.050781 L 303.867188 0.00390625 Z M 500.429688 257.359375 "/></clipPath><clipPath id="28e5f206b1"><path d="M 500.429688 257.359375 L 196.601562 489.410156 L 0.0429688 232.050781 L 303.867188 0.00390625 Z M 500.429688 257.359375 "/></clipPath><clipPath id="e096488dcb"><path d="M 294 236 L 324 236 L 324 276 L 294 276 Z M 294 236 "/></clipPath><clipPath id="da21e221ea"><path d="M 250.285156 260.527344 L 343.769531 214.507812 L 410.976562 351.035156 L 317.492188 397.054688 Z M 250.285156 260.527344 "/></clipPath><clipPath id="ea2fadce9c"><path d="M 250.285156 260.527344 L 343.769531 214.507812 L 410.976562 351.035156 L 317.492188 397.054688 Z M 250.285156 260.527344 "/></clipPath><clipPath id="a88764c5ab"><path d="M 328 242 L 354 242 L 354 275 L 328 275 Z M 328 242 "/></clipPath><clipPath id="5020621091"><path d="M 250.285156 260.527344 L 343.769531 214.507812 L 410.976562 351.035156 L 317.492188 397.054688 Z M 250.285156 260.527344 "/></clipPath><clipPath id="0901171bb7"><path d="M 250.285156 260.527344 L 343.769531 214.507812 L 410.976562 351.035156 L 317.492188 397.054688 Z M 250.285156 260.527344 "/></clipPath><clipPath id="e5f97327f2"><path d="M 323 286 L 355 286 L 355 320 L 323 320 Z M 323 286 "/></clipPath><clipPath id="332e1a3722"><path d="M 250.285156 260.527344 L 343.769531 214.507812 L 410.976562 351.035156 L 317.492188 397.054688 Z M 250.285156 260.527344 "/></clipPath><clipPath id="28f6c805b7"><path d="M 250.285156 260.527344 L 343.769531 214.507812 L 410.976562 351.035156 L 317.492188 397.054688 Z M 250.285156 260.527344 "/></clipPath><clipPath id="e6491e31f2"><path d="M 372 298 L 393 298 L 393 329 L 372 329 Z M 372 298 "/></clipPath><clipPath id="64b9a43317"><path d="M 250.285156 260.527344 L 343.769531 214.507812 L 410.976562 351.035156 L 317.492188 397.054688 Z M 250.285156 260.527344 "/></clipPath><clipPath id="8c55406377"><path d="M 250.285156 260.527344 L 343.769531 214.507812 L 410.976562 351.035156 L 317.492188 397.054688 Z M 250.285156 260.527344 "/></clipPath><clipPath id="f526842aad"><path d="M 368 344 L 387 344 L 387 364 L 368 364 Z M 368 344 "/></clipPath><clipPath id="899bb06c35"><path d="M 250.285156 260.527344 L 343.769531 214.507812 L 410.976562 351.035156 L 317.492188 397.054688 Z M 250.285156 260.527344 "/></clipPath><clipPath id="af7f7de38e"><path d="M 250.285156 260.527344 L 343.769531 214.507812 L 410.976562 351.035156 L 317.492188 397.054688 Z M 250.285156 260.527344 "/></clipPath><clipPath id="e986d7efbf"><path d="M 280 309 L 308 309 L 308 338 L 280 338 Z M 280 309 "/></clipPath><clipPath id="1224cd4917"><path d="M 250.285156 260.527344 L 343.769531 214.507812 L 410.976562 351.035156 L 317.492188 397.054688 Z M 250.285156 260.527344 "/></clipPath><clipPath id="69dba13f92"><path d="M 250.285156 260.527344 L 343.769531 214.507812 L 410.976562 351.035156 L 317.492188 397.054688 Z M 250.285156 260.527344 "/></clipPath><clipPath id="22fb2b5fbf"><path d="M 327 352 L 343 352 L 343 375 L 327 375 Z M 327 352 "/></clipPath><clipPath id="827e657973"><path d="M 250.285156 260.527344 L 343.769531 214.507812 L 410.976562 351.035156 L 317.492188 397.054688 Z M 250.285156 260.527344 "/></clipPath><clipPath id="c15fef30f8"><path d="M 250.285156 260.527344 L 343.769531 214.507812 L 410.976562 351.035156 L 317.492188 397.054688 Z M 250.285156 260.527344 "/></clipPath></defs><g id="c80c3d6a69"><g clip-rule="nonzero" clip-path="url(#2d5234b80a)"><g clip-rule="nonzero" clip-path="url(#7151428331)"><g clip-rule="nonzero" clip-path="url(#28e5f206b1)"><path style=" stroke:none;fill-rule:nonzero;fill:#44854b;fill-opacity:1;" d="M 452.105469 212 C 449.285156 190.734375 431.253906 174.625 413.914062 161.707031 C 396.578125 148.789062 377.464844 135.34375 370.273438 114.972656 C 368.09375 108.816406 367.082031 102.148438 363.484375 96.667969 C 356.617188 86.199219 342.097656 83.332031 330.492188 86.589844 C 318.886719 89.84375 309.425781 97.824219 300.054688 105.289062 C 290.683594 112.757812 280.527344 120.121094 268.535156 121.785156 C 244.199219 125.160156 221.671875 104.46875 196.972656 102.160156 C 178.210938 100.410156 160.234375 109.714844 147.234375 122.859375 C 134.230469 136.003906 125.402344 152.722656 116.742188 169.199219 C 103.917969 193.601562 91.011719 218.210938 83.378906 244.921875 C 76.285156 269.757812 73.953125 296.800781 81.285156 322.191406 C 88.613281 347.585938 106.628906 371.011719 131.050781 380.675781 C 151.085938 388.601562 175.957031 388.277344 189.664062 405.242188 C 197.71875 415.207031 199.925781 429.324219 209.351562 437.984375 C 230.878906 457.761719 264.707031 437.367188 280.203125 421.535156 C 298.742188 402.59375 306.78125 377.019531 309.679688 350.640625 C 311.554688 333.578125 311.023438 314.425781 323.625 301.648438 C 342.40625 282.613281 376.113281 282.273438 400.328125 274.117188 C 426.425781 265.328125 456.386719 244.320312 452.105469 212 "/></g></g></g><g clip-rule="nonzero" clip-path="url(#e096488dcb)"><g clip-rule="nonzero" clip-path="url(#da21e221ea)"><g clip-rule="nonzero" clip-path="url(#ea2fadce9c)"><path style=" stroke:none;fill-rule:nonzero;fill:#fec0c7;fill-opacity:1;" d="M 294.15625 247.8125 C 294.550781 252.210938 295.554688 256.464844 297.179688 260.570312 C 298.882812 265.226562 301.25 270.984375 305.667969 273.589844 C 306.628906 274.207031 307.664062 274.675781 308.761719 274.988281 C 309.859375 275.304688 310.984375 275.457031 312.125 275.445312 C 313.269531 275.433594 314.390625 275.257812 315.480469 274.921875 C 316.574219 274.582031 317.597656 274.09375 318.546875 273.457031 C 319.5 272.832031 320.339844 272.085938 321.070312 271.210938 C 321.800781 270.335938 322.386719 269.375 322.832031 268.328125 C 323.277344 267.28125 323.5625 266.191406 323.683594 265.058594 C 323.808594 263.925781 323.761719 262.800781 323.550781 261.683594 C 323.027344 259.175781 321.933594 256.953125 320.269531 255.011719 C 319.75 254.398438 319.191406 253.832031 318.699219 253.207031 C 318.203125 252.582031 317.523438 251.765625 316.941406 250.964844 C 316.363281 250.164062 315.464844 248.28125 316.855469 250.792969 C 315.332031 247.691406 313.132812 244.925781 311.53125 241.867188 C 311.28125 241.375 310.988281 240.90625 310.652344 240.46875 C 310.316406 240.03125 309.945312 239.625 309.539062 239.25 C 309.128906 238.878906 308.691406 238.542969 308.226562 238.25 C 307.757812 237.953125 307.269531 237.703125 306.757812 237.496094 C 306.246094 237.289062 305.71875 237.128906 305.179688 237.015625 C 304.636719 236.902344 304.089844 236.835938 303.539062 236.820312 C 302.988281 236.804688 302.4375 236.839844 301.890625 236.921875 C 301.34375 237.003906 300.808594 237.132812 300.289062 237.3125 C 299.765625 237.496094 299.265625 237.722656 298.785156 237.996094 C 298.304688 238.269531 297.851562 238.582031 297.425781 238.933594 C 297.003906 239.285156 296.609375 239.671875 296.253906 240.09375 C 295.894531 240.511719 295.578125 240.960938 295.300781 241.4375 C 295.019531 241.914062 294.785156 242.414062 294.597656 242.929688 C 294.40625 243.449219 294.261719 243.980469 294.164062 244.523438 C 294.066406 245.066406 294.015625 245.613281 294.015625 246.167969 C 294.015625 246.71875 294.0625 247.265625 294.15625 247.8125 Z M 294.15625 247.8125 "/></g></g></g><g clip-rule="nonzero" clip-path="url(#a88764c5ab)"><g clip-rule="nonzero" clip-path="url(#5020621091)"><g clip-rule="nonzero" clip-path="url(#0901171bb7)"><path style=" stroke:none;fill-rule:nonzero;fill:#fec0c7;fill-opacity:1;" d="M 328.460938 249.394531 C 328.589844 253.171875 329.476562 256.757812 331.121094 260.160156 L 331.832031 262.167969 C 331.378906 260.871094 331.636719 261.769531 331.992188 262.492188 C 332.457031 263.941406 332.882812 265.375 333.3125 266.8125 C 335.019531 272.613281 340.226562 276.507812 346.378906 274.441406 C 347.058594 274.214844 347.710938 273.921875 348.328125 273.558594 C 348.945312 273.195312 349.519531 272.769531 350.046875 272.285156 C 350.574219 271.796875 351.042969 271.261719 351.457031 270.675781 C 351.867188 270.085938 352.214844 269.464844 352.492188 268.804688 C 352.773438 268.144531 352.976562 267.460938 353.109375 266.753906 C 353.242188 266.050781 353.300781 265.339844 353.28125 264.621094 C 353.261719 263.90625 353.167969 263.199219 352.996094 262.503906 C 352.824219 261.804688 352.582031 261.132812 352.269531 260.488281 C 350.730469 257.800781 349.152344 255.164062 347.472656 252.574219 C 345.707031 249.054688 343.234375 246.132812 340.054688 243.8125 C 339.785156 243.632812 339.503906 243.472656 339.214844 243.332031 C 338.925781 243.1875 338.628906 243.066406 338.320312 242.964844 C 338.015625 242.859375 337.703125 242.777344 337.386719 242.714844 C 337.070312 242.652344 336.753906 242.609375 336.429688 242.585938 C 336.109375 242.5625 335.785156 242.5625 335.464844 242.582031 C 335.140625 242.601562 334.820312 242.644531 334.503906 242.703125 C 334.1875 242.765625 333.875 242.847656 333.570312 242.949219 C 333.261719 243.050781 332.964844 243.171875 332.671875 243.3125 C 332.382812 243.449219 332.101562 243.609375 331.832031 243.785156 C 331.5625 243.960938 331.304688 244.15625 331.058594 244.363281 C 330.8125 244.574219 330.582031 244.800781 330.363281 245.039062 C 330.148438 245.277344 329.949219 245.53125 329.765625 245.796875 C 329.582031 246.0625 329.414062 246.335938 329.265625 246.625 C 329.117188 246.910156 328.988281 247.207031 328.878906 247.511719 C 328.769531 247.8125 328.679688 248.125 328.609375 248.4375 C 328.539062 248.753906 328.492188 249.070312 328.460938 249.394531 Z M 328.460938 249.394531 "/></g></g></g><g clip-rule="nonzero" clip-path="url(#e5f97327f2)"><g clip-rule="nonzero" clip-path="url(#332e1a3722)"><g clip-rule="nonzero" clip-path="url(#28f6c805b7)"><path style=" stroke:none;fill-rule:nonzero;fill:#fec0c7;fill-opacity:1;" d="M 324.074219 302.277344 C 326.683594 308.347656 330.46875 313.558594 335.433594 317.917969 C 336.050781 318.324219 336.699219 318.671875 337.378906 318.960938 C 338.058594 319.25 338.761719 319.472656 339.480469 319.636719 C 340.203125 319.796875 340.929688 319.894531 341.667969 319.921875 C 342.40625 319.953125 343.140625 319.914062 343.875 319.8125 C 344.605469 319.707031 345.320312 319.539062 346.023438 319.308594 C 346.722656 319.074219 347.398438 318.78125 348.042969 318.425781 C 348.691406 318.070312 349.300781 317.65625 349.875 317.191406 C 350.449219 316.726562 350.972656 316.210938 351.453125 315.648438 C 351.933594 315.089844 352.363281 314.496094 352.738281 313.859375 C 353.109375 313.222656 353.425781 312.5625 353.683594 311.871094 C 353.9375 311.179688 354.128906 310.46875 354.257812 309.742188 C 354.390625 309.019531 354.453125 308.285156 354.453125 307.550781 C 354.449219 306.8125 354.382812 306.082031 354.253906 305.355469 C 354.121094 304.628906 353.925781 303.921875 353.667969 303.230469 C 353.410156 302.542969 353.09375 301.878906 352.71875 301.246094 C 352.339844 300.609375 351.914062 300.015625 351.429688 299.457031 C 350.273438 298 348.910156 296.78125 347.332031 295.796875 C 347.851562 296.097656 349.125 297.488281 347.960938 296.324219 C 347.515625 295.859375 347.035156 295.445312 346.574219 294.957031 C 345.046875 293.398438 343.613281 291.753906 342.285156 290.023438 C 341.832031 289.550781 341.34375 289.125 340.820312 288.742188 C 340.296875 288.355469 339.738281 288.023438 339.15625 287.734375 C 338.570312 287.449219 337.96875 287.214844 337.34375 287.03125 C 336.71875 286.851562 336.082031 286.726562 335.433594 286.65625 C 334.785156 286.585938 334.136719 286.574219 333.488281 286.621094 C 332.839844 286.664062 332.199219 286.765625 331.566406 286.921875 C 330.933594 287.078125 330.320312 287.285156 329.726562 287.550781 C 329.132812 287.816406 328.566406 288.128906 328.023438 288.492188 C 327.484375 288.855469 326.980469 289.261719 326.511719 289.714844 C 326.042969 290.164062 325.617188 290.65625 325.234375 291.179688 C 324.851562 291.707031 324.519531 292.261719 324.234375 292.847656 C 323.949219 293.433594 323.714844 294.039062 323.535156 294.664062 C 323.355469 295.289062 323.234375 295.925781 323.164062 296.574219 C 323.097656 297.21875 323.085938 297.867188 323.132812 298.519531 C 323.179688 299.167969 323.28125 299.808594 323.4375 300.4375 C 323.597656 301.070312 323.808594 301.683594 324.074219 302.277344 Z M 324.074219 302.277344 "/></g></g></g><g clip-rule="nonzero" clip-path="url(#e6491e31f2)"><g clip-rule="nonzero" clip-path="url(#64b9a43317)"><g clip-rule="nonzero" clip-path="url(#8c55406377)"><path style=" stroke:none;fill-rule:nonzero;fill:#fec0c7;fill-opacity:1;" d="M 375.15625 299.792969 L 374.957031 299.890625 C 374.480469 300.308594 374.070312 300.777344 373.722656 301.304688 C 373.371094 301.828125 373.097656 302.390625 372.894531 302.988281 C 372.691406 303.585938 372.570312 304.199219 372.53125 304.828125 C 372.492188 305.460938 372.535156 306.082031 372.660156 306.703125 C 373.3125 309.136719 373.78125 311.605469 374.070312 314.109375 C 374.152344 314.90625 374.128906 314.980469 374.070312 314.109375 C 374.089844 314.71875 374.101562 315.367188 374.097656 315.988281 C 374.09375 316.613281 374.027344 317.234375 374.046875 317.84375 C 374.132812 319.785156 374.546875 321.652344 375.28125 323.445312 C 375.503906 323.894531 375.757812 324.320312 376.050781 324.726562 C 376.339844 325.132812 376.660156 325.511719 377.011719 325.867188 C 377.363281 326.222656 377.742188 326.542969 378.148438 326.835938 C 378.550781 327.128906 378.976562 327.386719 379.425781 327.609375 C 379.871094 327.832031 380.332031 328.015625 380.808594 328.164062 C 381.285156 328.3125 381.773438 328.421875 382.265625 328.488281 C 382.761719 328.558594 383.257812 328.585938 383.757812 328.574219 C 384.257812 328.5625 384.75 328.507812 385.242188 328.414062 C 386.214844 328.1875 387.132812 327.816406 387.988281 327.304688 C 388.847656 326.789062 389.609375 326.160156 390.273438 325.410156 C 390.933594 324.664062 391.46875 323.832031 391.871094 322.917969 C 392.277344 322 392.535156 321.046875 392.640625 320.054688 C 393.285156 316.632812 391.417969 312.398438 390.191406 309.214844 C 389.25 306.730469 388.082031 304.355469 386.6875 302.09375 C 386.308594 301.367188 385.824219 300.71875 385.238281 300.148438 C 384.652344 299.578125 383.988281 299.117188 383.25 298.761719 C 382.511719 298.40625 381.738281 298.175781 380.925781 298.070312 C 380.117188 297.964844 379.308594 297.988281 378.503906 298.144531 C 377.289062 298.492188 376.171875 299.039062 375.15625 299.792969 Z M 375.15625 299.792969 "/></g></g></g><g clip-rule="nonzero" clip-path="url(#f526842aad)"><g clip-rule="nonzero" clip-path="url(#899bb06c35)"><g clip-rule="nonzero" clip-path="url(#af7f7de38e)"><path style=" stroke:none;fill-rule:nonzero;fill:#fec0c7;fill-opacity:1;" d="M 368.78125 347.570312 C 368.519531 348.421875 368.367188 349.292969 368.316406 350.183594 C 368.265625 351.074219 368.320312 351.957031 368.480469 352.832031 C 368.644531 353.710938 368.90625 354.554688 369.269531 355.367188 C 369.636719 356.179688 370.089844 356.941406 370.636719 357.644531 C 371.433594 358.867188 372.355469 359.984375 373.40625 361 C 373.894531 361.539062 374.441406 362.011719 375.046875 362.410156 C 375.65625 362.8125 376.300781 363.132812 376.988281 363.375 C 377.675781 363.613281 378.382812 363.761719 379.109375 363.824219 C 379.832031 363.886719 380.554688 363.859375 381.273438 363.738281 C 381.71875 363.652344 382.148438 363.523438 382.570312 363.351562 C 382.988281 363.179688 383.386719 362.972656 383.765625 362.722656 C 384.144531 362.472656 384.492188 362.1875 384.816406 361.871094 C 385.136719 361.554688 385.425781 361.207031 385.683594 360.832031 C 385.9375 360.457031 386.152344 360.0625 386.328125 359.644531 C 386.507812 359.230469 386.640625 358.800781 386.734375 358.355469 C 386.828125 357.914062 386.878906 357.464844 386.882812 357.011719 C 386.886719 356.558594 386.847656 356.109375 386.765625 355.664062 C 386.515625 354.578125 386.078125 353.574219 385.453125 352.648438 C 384.824219 351.726562 384.054688 350.945312 383.136719 350.3125 C 382.667969 349.984375 382.171875 349.667969 381.6875 349.378906 C 380.691406 348.8125 381.6875 349.378906 381.203125 349.027344 C 379.386719 347.1875 377.328125 345.675781 375.027344 344.492188 C 374.722656 344.394531 374.410156 344.324219 374.089844 344.285156 C 373.769531 344.246094 373.449219 344.238281 373.128906 344.261719 C 372.804688 344.28125 372.488281 344.335938 372.179688 344.421875 C 371.867188 344.503906 371.566406 344.617188 371.277344 344.761719 C 370.988281 344.902344 370.71875 345.070312 370.460938 345.265625 C 370.203125 345.460938 369.96875 345.679688 369.753906 345.921875 C 369.539062 346.160156 369.351562 346.417969 369.1875 346.695312 C 369.023438 346.972656 368.886719 347.265625 368.78125 347.570312 Z M 368.78125 347.570312 "/></g></g></g><g clip-rule="nonzero" clip-path="url(#e986d7efbf)"><g clip-rule="nonzero" clip-path="url(#1224cd4917)"><g clip-rule="nonzero" clip-path="url(#69dba13f92)"><path style=" stroke:none;fill-rule:nonzero;fill:#fec0c7;fill-opacity:1;" d="M 280.5625 316.867188 C 280.324219 319.363281 280.75 321.742188 281.839844 324 C 282.566406 325.964844 283.5625 327.78125 284.832031 329.449219 C 285.996094 331.207031 287.40625 332.742188 289.066406 334.046875 C 290.722656 335.355469 292.542969 336.371094 294.523438 337.09375 C 295.046875 337.257812 295.582031 337.378906 296.125 337.460938 C 296.667969 337.539062 297.214844 337.578125 297.765625 337.570312 C 298.316406 337.5625 298.859375 337.511719 299.402344 337.421875 C 299.945312 337.328125 300.472656 337.191406 300.996094 337.015625 C 301.515625 336.839844 302.019531 336.621094 302.503906 336.363281 C 302.988281 336.109375 303.453125 335.816406 303.890625 335.484375 C 304.332031 335.15625 304.742188 334.792969 305.125 334.398438 C 305.507812 334.003906 305.855469 333.582031 306.167969 333.128906 C 306.738281 332.191406 307.152344 331.1875 307.410156 330.121094 C 307.671875 329.050781 307.761719 327.96875 307.683594 326.875 C 307.605469 325.777344 307.363281 324.71875 306.953125 323.699219 C 306.546875 322.679688 305.996094 321.742188 305.300781 320.894531 C 304.070312 319.484375 302.644531 318.3125 301.023438 317.378906 C 300.613281 317.117188 298.503906 315.855469 300.699219 317.289062 C 300.324219 316.882812 299.972656 316.457031 299.636719 316.011719 C 298.769531 315.199219 297.765625 314.484375 296.898438 313.667969 C 297.804688 314.496094 297.71875 314.382812 296.898438 313.667969 C 295.335938 311.960938 293.5 310.628906 291.394531 309.671875 C 290.800781 309.457031 290.191406 309.316406 289.5625 309.25 C 288.933594 309.183594 288.308594 309.195312 287.683594 309.28125 C 287.058594 309.371094 286.453125 309.535156 285.867188 309.773438 C 285.28125 310.007812 284.734375 310.3125 284.226562 310.6875 C 283.191406 311.398438 282.355469 312.296875 281.714844 313.375 C 281.074219 314.453125 280.691406 315.617188 280.5625 316.867188 Z M 280.5625 316.867188 "/></g></g></g><g clip-rule="nonzero" clip-path="url(#22fb2b5fbf)"><g clip-rule="nonzero" clip-path="url(#827e657973)"><g clip-rule="nonzero" clip-path="url(#c15fef30f8)"><path style=" stroke:none;fill-rule:nonzero;fill:#fec0c7;fill-opacity:1;" d="M 329.488281 353.066406 C 325.472656 355.882812 327.546875 360.726562 328.882812 364.449219 C 329.472656 366.378906 330.355469 368.171875 331.527344 369.820312 C 332.835938 371.609375 334.519531 372.921875 336.570312 373.761719 C 336.921875 373.882812 337.28125 373.957031 337.648438 373.996094 C 338.015625 374.03125 338.382812 374.027344 338.75 373.980469 C 339.117188 373.933594 339.476562 373.84375 339.820312 373.714844 C 340.167969 373.585938 340.496094 373.417969 340.804688 373.214844 C 341.113281 373.007812 341.394531 372.773438 341.648438 372.503906 C 341.902344 372.234375 342.125 371.941406 342.3125 371.621094 C 342.496094 371.300781 342.644531 370.964844 342.757812 370.613281 C 342.867188 370.257812 342.933594 369.898438 342.960938 369.53125 C 342.960938 367.277344 342.492188 365.128906 341.558594 363.082031 C 340.746094 361.433594 339.707031 359.832031 338.847656 358.207031 C 337.726562 355.933594 336.871094 353.5625 334.261719 352.609375 C 333.480469 352.261719 332.664062 352.128906 331.8125 352.210938 C 330.964844 352.292969 330.1875 352.578125 329.488281 353.066406 Z M 329.488281 353.066406 "/></g></g></g></g></svg>