<svg xmlns="http://www.w3.org/2000/svg" xmlns:xlink="http://www.w3.org/1999/xlink" width="668" zoomAndPan="magnify" viewBox="0 0 501 444.749984" height="593" preserveAspectRatio="xMidYMid meet" version="1.2"><defs><clipPath id="b61bb4103a"><path d="M 289 218 L 484 218 L 484 377 L 289 377 Z M 289 218 "/></clipPath><clipPath id="e2fc368c63"><path d="M 291.386719 215.132812 L 500.453125 220.304688 L 496.507812 379.914062 L 287.4375 374.742188 Z M 291.386719 215.132812 "/></clipPath><clipPath id="31d3616569"><path d="M 291.386719 215.132812 L 500.453125 220.304688 L 496.507812 379.914062 L 287.4375 374.742188 Z M 291.386719 215.132812 "/></clipPath><clipPath id="4826482706"><path d="M 367 320 L 380 320 L 380 338 L 367 338 Z M 367 320 "/></clipPath><clipPath id="7a2a6ab203"><path d="M 309.785156 346.976562 L 397.988281 307.34375 L 441.613281 404.433594 L 353.414062 444.066406 Z M 309.785156 346.976562 "/></clipPath><clipPath id="8298fa2b9f"><path d="M 309.785156 346.976562 L 397.988281 307.34375 L 441.613281 404.433594 L 353.414062 444.066406 Z M 309.785156 346.976562 "/></clipPath><clipPath id="f032f5bf47"><path d="M 394 358 L 407 358 L 407 378 L 394 378 Z M 394 358 "/></clipPath><clipPath id="95e5526aa8"><path d="M 309.785156 346.976562 L 397.988281 307.34375 L 441.613281 404.433594 L 353.414062 444.066406 Z M 309.785156 346.976562 "/></clipPath><clipPath id="1e2ddb6d38"><path d="M 309.785156 346.976562 L 397.988281 307.34375 L 441.613281 404.433594 L 353.414062 444.066406 Z M 309.785156 346.976562 "/></clipPath><clipPath id="116e3de034"><path d="M 363 391 L 376 391 L 376 409 L 363 409 Z M 363 391 "/></clipPath><clipPath id="209e168de1"><path d="M 309.785156 346.976562 L 397.988281 307.34375 L 441.613281 404.433594 L 353.414062 444.066406 Z M 309.785156 346.976562 "/></clipPath><clipPath id="8db9df9f43"><path d="M 309.785156 346.976562 L 397.988281 307.34375 L 441.613281 404.433594 L 353.414062 444.066406 Z M 309.785156 346.976562 "/></clipPath><clipPath id="b2b2807f48"><path d="M 396 401 L 410 401 L 410 420 L 396 420 Z M 396 401 "/></clipPath><clipPath id="ed7db6c81e"><path d="M 309.785156 346.976562 L 397.988281 307.34375 L 441.613281 404.433594 L 353.414062 444.066406 Z M 309.785156 346.976562 "/></clipPath><clipPath id="8f4ce3f3a6"><path d="M 309.785156 346.976562 L 397.988281 307.34375 L 441.613281 404.433594 L 353.414062 444.066406 Z M 309.785156 346.976562 "/></clipPath><clipPath id="bff3774d25"><path d="M 335 350 L 347 350 L 347 370 L 335 370 Z M 335 350 "/></clipPath><clipPath id="72a441abe6"><path d="M 309.785156 346.976562 L 397.988281 307.34375 L 441.613281 404.433594 L 353.414062 444.066406 Z M 309.785156 346.976562 "/></clipPath><clipPath id="07eaf17f35"><path d="M 309.785156 346.976562 L 397.988281 307.34375 L 441.613281 404.433594 L 353.414062 444.066406 Z M 309.785156 346.976562 "/></clipPath><clipPath id="b6e00d735f"><path d="M 400 324 L 411 324 L 411 340 L 400 340 Z M 400 324 "/></clipPath><clipPath id="35edb40761"><path d="M 309.785156 346.976562 L 397.988281 307.34375 L 441.613281 404.433594 L 353.414062 444.066406 Z M 309.785156 346.976562 "/></clipPath><clipPath id="7b008ada11"><path d="M 309.785156 346.976562 L 397.988281 307.34375 L 441.613281 404.433594 L 353.414062 444.066406 Z M 309.785156 346.976562 "/></clipPath><clipPath id="982c34b148"><path d="M 344 421 L 356 421 L 356 436 L 344 436 Z M 344 421 "/></clipPath><clipPath id="9ac6696f1e"><path d="M 309.785156 346.976562 L 397.988281 307.34375 L 441.613281 404.433594 L 353.414062 444.066406 Z M 309.785156 346.976562 "/></clipPath><clipPath id="8470fb0b6b"><path d="M 309.785156 346.976562 L 397.988281 307.34375 L 441.613281 404.433594 L 353.414062 444.066406 Z M 309.785156 346.976562 "/></clipPath><clipPath id="dc886d65b6"><path d="M 366 356 L 380 356 L 380 376 L 366 376 Z M 366 356 "/></clipPath><clipPath id="966aa7cffa"><path d="M 309.785156 346.976562 L 397.988281 307.34375 L 441.613281 404.433594 L 353.414062 444.066406 Z M 309.785156 346.976562 "/></clipPath><clipPath id="b23be6871e"><path d="M 309.785156 346.976562 L 397.988281 307.34375 L 441.613281 404.433594 L 353.414062 444.066406 Z M 309.785156 346.976562 "/></clipPath><clipPath id="1308b60c42"><path d="M 90 60 L 383 60 L 383 405 L 90 405 Z M 90 60 "/></clipPath><clipPath id="b31247cffc"><path d="M 0.144531 133.941406 L 298.246094 -0.0078125 L 436.808594 308.351562 L 138.703125 442.300781 Z M 0.144531 133.941406 "/></clipPath><clipPath id="3350b44d9c"><path d="M 0.144531 133.941406 L 298.246094 -0.0078125 L 436.808594 308.351562 L 138.703125 442.300781 Z M 0.144531 133.941406 "/></clipPath></defs><g id="5afa97cce1"><g clip-rule="nonzero" clip-path="url(#b61bb4103a)"><g clip-rule="nonzero" clip-path="url(#e2fc368c63)"><g clip-rule="nonzero" clip-path="url(#31d3616569)"><path style=" stroke:none;fill-rule:nonzero;fill:#fed3cf;fill-opacity:1;" d="M 362.917969 372.570312 C 348.863281 369.070312 334.328125 363.660156 322.484375 355.234375 C 310.507812 346.710938 303.71875 342.871094 297.359375 332.320312 C 293.914062 326.585938 290.832031 313.828125 290.046875 303.679688 C 289.714844 299.480469 289.964844 295.269531 289.507812 291.085938 C 290.378906 263.019531 301.726562 228.351562 328.007812 219.925781 C 339.1875 216.34375 348.777344 220.636719 358.222656 227.480469 C 390.925781 251.421875 385.453125 287.550781 421.585938 295.636719 C 451.242188 302.257812 498.40625 293.882812 479.066406 336.074219 C 468.609375 358.898438 453.082031 371.875 412.398438 375.316406 C 408.480469 375.644531 404.578125 376.125 400.652344 376.332031 C 386.425781 377.09375 376.011719 375.835938 362.917969 372.570312 Z M 296.46875 291.761719 C 295.953125 300.890625 298.691406 322.410156 304.75 331.058594 C 309.601562 338.046875 312.378906 339.441406 326.257812 349.386719 C 343.660156 361.859375 369.902344 368.902344 391.199219 369.570312 C 401.160156 369.878906 429.050781 367.703125 444.289062 361.792969 C 460.328125 355.574219 469.960938 342.734375 475.355469 326.335938 C 479.859375 312.621094 472.015625 309.488281 457.648438 307.132812 C 438.179688 303.941406 415.257812 306.476562 397.785156 291.351562 C 379.136719 275.261719 377.121094 245.683594 348.03125 229.117188 C 345.15625 227.363281 342.050781 226.242188 338.714844 225.757812 C 328.777344 224.558594 319.894531 230.765625 313.433594 238.457031 C 309.746094 243 306.769531 247.96875 304.503906 253.367188 C 299.359375 264.925781 297.296875 277.152344 296.46875 291.761719 Z M 296.46875 291.761719 "/></g></g></g><g clip-rule="nonzero" clip-path="url(#4826482706)"><g clip-rule="nonzero" clip-path="url(#7a2a6ab203)"><g clip-rule="nonzero" clip-path="url(#8298fa2b9f)"><path style=" stroke:none;fill-rule:nonzero;fill:#f8abd5;fill-opacity:1;" d="M 368.019531 325.039062 C 369.253906 326.992188 370.464844 328.898438 371.542969 330.921875 C 372.304688 332.964844 373.363281 334.839844 374.71875 336.546875 C 376.324219 338.125 379.808594 337.773438 379.878906 335 C 380.003906 330.15625 375.789062 324.640625 372.5625 321.277344 C 372.304688 321.011719 372.007812 320.800781 371.667969 320.644531 C 371.328125 320.488281 370.972656 320.402344 370.601562 320.378906 C 370.230469 320.359375 369.867188 320.40625 369.511719 320.523438 C 369.160156 320.640625 368.839844 320.816406 368.550781 321.054688 C 368.265625 321.292969 368.03125 321.574219 367.847656 321.898438 C 367.667969 322.226562 367.554688 322.570312 367.503906 322.941406 C 367.453125 323.308594 367.472656 323.675781 367.5625 324.039062 C 367.652344 324.398438 367.804688 324.734375 368.019531 325.039062 Z M 368.019531 325.039062 "/></g></g></g><g clip-rule="nonzero" clip-path="url(#f032f5bf47)"><g clip-rule="nonzero" clip-path="url(#95e5526aa8)"><g clip-rule="nonzero" clip-path="url(#1e2ddb6d38)"><path style=" stroke:none;fill-rule:nonzero;fill:#f8abd5;fill-opacity:1;" d="M 394.53125 362.4375 C 396.226562 367.394531 398.644531 371.972656 401.789062 376.167969 C 402.007812 376.425781 402.269531 376.636719 402.566406 376.804688 C 402.863281 376.96875 403.179688 377.078125 403.519531 377.128906 C 403.855469 377.183594 404.191406 377.171875 404.523438 377.105469 C 404.855469 377.035156 405.167969 376.910156 405.457031 376.730469 C 405.746094 376.550781 405.996094 376.324219 406.203125 376.054688 C 406.410156 375.785156 406.566406 375.488281 406.667969 375.164062 C 406.765625 374.835938 406.808594 374.503906 406.789062 374.164062 C 406.773438 373.824219 406.695312 373.5 406.558594 373.1875 C 404.46875 368.769531 401.792969 364.53125 399.457031 360.222656 C 399.292969 359.925781 399.082031 359.671875 398.820312 359.453125 C 398.558594 359.234375 398.265625 359.074219 397.941406 358.96875 C 397.621094 358.859375 397.289062 358.816406 396.949219 358.832031 C 396.613281 358.847656 396.285156 358.925781 395.976562 359.066406 C 395.667969 359.207031 395.394531 359.398438 395.15625 359.640625 C 394.917969 359.882812 394.730469 360.160156 394.597656 360.46875 C 394.464844 360.78125 394.390625 361.109375 394.378906 361.449219 C 394.367188 361.789062 394.417969 362.117188 394.53125 362.4375 Z M 394.53125 362.4375 "/></g></g></g><g clip-rule="nonzero" clip-path="url(#116e3de034)"><g clip-rule="nonzero" clip-path="url(#209e168de1)"><g clip-rule="nonzero" clip-path="url(#8db9df9f43)"><path style=" stroke:none;fill-rule:nonzero;fill:#f8abd5;fill-opacity:1;" d="M 363.5 394.648438 C 364.402344 397.835938 365.78125 400.800781 367.640625 403.539062 C 369.1875 406.046875 370.375 408.316406 373.398438 408.945312 C 373.679688 408.972656 373.953125 408.945312 374.226562 408.863281 C 374.496094 408.78125 374.738281 408.648438 374.957031 408.472656 C 375.179688 408.292969 375.355469 408.078125 375.488281 407.832031 C 375.625 407.582031 375.707031 407.316406 375.738281 407.035156 C 376.039062 404.308594 374.3125 402.46875 372.859375 400.296875 C 371.316406 397.671875 369.632812 395.144531 367.796875 392.714844 C 366.316406 390.996094 362.917969 392.191406 363.5 394.648438 Z M 363.5 394.648438 "/></g></g></g><g clip-rule="nonzero" clip-path="url(#b2b2807f48)"><g clip-rule="nonzero" clip-path="url(#ed7db6c81e)"><g clip-rule="nonzero" clip-path="url(#8f4ce3f3a6)"><path style=" stroke:none;fill-rule:nonzero;fill:#f8abd5;fill-opacity:1;" d="M 396.648438 404.628906 C 398.082031 407.550781 399.675781 410.386719 401.429688 413.128906 C 402.789062 415.59375 403.714844 418.214844 406.457031 419.242188 C 406.777344 419.351562 407.101562 419.390625 407.441406 419.355469 C 407.777344 419.324219 408.089844 419.222656 408.382812 419.050781 C 408.671875 418.878906 408.914062 418.652344 409.109375 418.375 C 409.300781 418.097656 409.425781 417.792969 409.484375 417.460938 C 410.144531 414.507812 408.027344 411.839844 406.550781 409.488281 C 405.035156 406.722656 403.199219 404.183594 401.039062 401.882812 C 400.820312 401.691406 400.578125 401.539062 400.3125 401.429688 C 400.042969 401.316406 399.765625 401.25 399.476562 401.226562 C 399.1875 401.203125 398.902344 401.226562 398.621094 401.296875 C 398.335938 401.367188 398.074219 401.476562 397.828125 401.632812 C 397.582031 401.785156 397.367188 401.972656 397.179688 402.195312 C 396.996094 402.417969 396.851562 402.664062 396.742188 402.9375 C 396.636719 403.207031 396.578125 403.484375 396.558594 403.773438 C 396.542969 404.066406 396.574219 404.347656 396.648438 404.628906 Z M 396.648438 404.628906 "/></g></g></g><g clip-rule="nonzero" clip-path="url(#bff3774d25)"><g clip-rule="nonzero" clip-path="url(#72a441abe6)"><g clip-rule="nonzero" clip-path="url(#07eaf17f35)"><path style=" stroke:none;fill-rule:nonzero;fill:#f8abd5;fill-opacity:1;" d="M 335.132812 353.457031 C 336.167969 356.539062 337.367188 359.558594 338.722656 362.511719 C 339.734375 365.132812 340.3125 367.867188 342.890625 369.324219 C 343.042969 369.402344 343.203125 369.464844 343.371094 369.507812 C 343.539062 369.550781 343.707031 369.574219 343.882812 369.578125 C 344.054688 369.582031 344.222656 369.570312 344.394531 369.535156 C 344.5625 369.5 344.726562 369.449219 344.882812 369.378906 C 345.039062 369.308594 345.1875 369.21875 345.324219 369.117188 C 345.464844 369.011719 345.585938 368.894531 345.699219 368.761719 C 345.808594 368.628906 345.902344 368.488281 345.984375 368.332031 C 346.0625 368.179688 346.121094 368.019531 346.164062 367.851562 C 347.238281 365.027344 345.519531 362.136719 344.363281 359.558594 C 343.242188 356.613281 341.789062 353.84375 340 351.246094 C 339.820312 350.980469 339.601562 350.753906 339.34375 350.566406 C 339.082031 350.378906 338.800781 350.242188 338.492188 350.15625 C 338.183594 350.070312 337.871094 350.039062 337.550781 350.0625 C 337.230469 350.085938 336.925781 350.164062 336.632812 350.296875 C 336.34375 350.429688 336.082031 350.605469 335.855469 350.832031 C 335.625 351.054688 335.445312 351.3125 335.304688 351.601562 C 335.167969 351.890625 335.085938 352.195312 335.054688 352.511719 C 335.027344 352.832031 335.050781 353.144531 335.132812 353.457031 Z M 335.132812 353.457031 "/></g></g></g><g clip-rule="nonzero" clip-path="url(#b6e00d735f)"><g clip-rule="nonzero" clip-path="url(#35edb40761)"><g clip-rule="nonzero" clip-path="url(#7b008ada11)"><path style=" stroke:none;fill-rule:nonzero;fill:#f8abd5;fill-opacity:1;" d="M 400.394531 327.667969 C 401.285156 329.933594 402.371094 332.101562 403.652344 334.171875 C 404.492188 336.234375 405.746094 338 407.414062 339.472656 C 407.558594 339.570312 407.707031 339.648438 407.871094 339.707031 C 408.035156 339.769531 408.199219 339.804688 408.375 339.820312 C 408.546875 339.835938 408.714844 339.832031 408.886719 339.800781 C 409.058594 339.773438 409.222656 339.726562 409.378906 339.652344 C 409.539062 339.582031 409.683594 339.492188 409.816406 339.382812 C 409.953125 339.277344 410.070312 339.152344 410.171875 339.011719 C 410.277344 338.875 410.359375 338.722656 410.421875 338.5625 C 410.484375 338.402344 410.527344 338.234375 410.546875 338.0625 C 410.484375 335.527344 409.683594 333.25 408.148438 331.234375 C 406.929688 328.9375 405.335938 326.941406 403.363281 325.242188 C 401.660156 323.917969 399.859375 325.960938 400.394531 327.667969 Z M 400.394531 327.667969 "/></g></g></g><g clip-rule="nonzero" clip-path="url(#982c34b148)"><g clip-rule="nonzero" clip-path="url(#9ac6696f1e)"><g clip-rule="nonzero" clip-path="url(#8470fb0b6b)"><path style=" stroke:none;fill-rule:nonzero;fill:#f8abd5;fill-opacity:1;" d="M 344.625 422.441406 C 344.902344 424.890625 345.832031 427.058594 347.421875 428.945312 C 348.84375 431.132812 350.289062 433.933594 352.644531 435.261719 C 353.90625 435.972656 356.089844 435.199219 355.640625 433.410156 C 354.792969 431.117188 353.5625 429.046875 351.953125 427.203125 C 350.574219 425.207031 349.398438 422.492188 347.199219 421.28125 C 346.292969 420.75 344.613281 421.066406 344.625 422.441406 Z M 344.625 422.441406 "/></g></g></g><g clip-rule="nonzero" clip-path="url(#dc886d65b6)"><g clip-rule="nonzero" clip-path="url(#966aa7cffa)"><g clip-rule="nonzero" clip-path="url(#b23be6871e)"><path style=" stroke:none;fill-rule:nonzero;fill:#f8abd5;fill-opacity:1;" d="M 366.957031 358.113281 C 367.421875 361.523438 369.921875 364.707031 371.320312 367.824219 C 372.722656 370.941406 373.117188 374.382812 376.335938 375.675781 C 376.765625 375.835938 377.195312 375.851562 377.636719 375.722656 C 378.074219 375.589844 378.425781 375.339844 378.695312 374.972656 C 380.671875 371.449219 378.25 367.976562 376.398438 364.832031 C 374.546875 361.6875 372.355469 357.925781 368.859375 356.566406 C 368.742188 356.527344 368.621094 356.503906 368.5 356.496094 C 368.378906 356.488281 368.257812 356.492188 368.136719 356.515625 C 368.019531 356.539062 367.902344 356.574219 367.792969 356.625 C 367.679688 356.675781 367.578125 356.738281 367.484375 356.816406 C 367.386719 356.894531 367.304688 356.980469 367.230469 357.078125 C 367.160156 357.179688 367.101562 357.285156 367.054688 357.398438 C 367.007812 357.511719 366.976562 357.625 366.960938 357.746094 C 366.945312 357.867188 366.941406 357.988281 366.957031 358.113281 Z M 366.957031 358.113281 "/></g></g></g><g clip-rule="nonzero" clip-path="url(#1308b60c42)"><g clip-rule="nonzero" clip-path="url(#b31247cffc)"><g clip-rule="nonzero" clip-path="url(#3350b44d9c)"><path style=" stroke:none;fill-rule:nonzero;fill:#d0e5cc;fill-opacity:1;" d="M 361.71875 146.71875 C 342.144531 118.738281 313.089844 99.511719 282.933594 84.394531 C 256.3125 71.074219 227.492188 61.398438 197.53125 60.488281 C 183.015625 60.007812 167.191406 60.707031 153.550781 65.953125 C 139.976562 71.167969 127.792969 79.8125 118.050781 90.601562 C 108.121094 101.476562 100.648438 114.859375 96.929688 129.058594 C 92.652344 145.128906 93.683594 161.691406 94.386719 178.179688 C 96.027344 215.621094 89.4375 252.78125 90.832031 290.332031 C 92.046875 323.542969 100.847656 358.058594 125.5625 381.890625 C 149.175781 404.59375 182.339844 408.851562 213.339844 401.40625 C 248.753906 392.792969 279.5625 370.988281 304.332031 344.75 C 316.789062 331.632812 327.882812 317.289062 338.335938 302.496094 C 348.628906 287.84375 358.902344 272.984375 367.671875 257.398438 C 375.628906 243.285156 381.398438 228.234375 381.953125 211.921875 C 382.503906 196.417969 379.113281 180.839844 372.871094 166.621094 C 369.765625 159.539062 365.914062 152.941406 361.71875 146.71875 "/></g></g></g></g></svg>